<?xml version="1.0" encoding="UTF-8" standalone="no"?>
<!DOCTYPE svg PUBLIC "-//W3C//DTD SVG 1.1//EN" "http://www.w3.org/Graphics/SVG/1.1/DTD/svg11.dtd">
<svg width="100%" height="100%" viewBox="0 0 32 32" version="1.1" xmlns="http://www.w3.org/2000/svg"
    xmlns:xlink="http://www.w3.org/1999/xlink" xml:space="preserve" xmlns:serif="http://www.serif.com/"
    style="fill-rule:evenodd;clip-rule:evenodd;stroke-linecap:round;stroke-linejoin:round;stroke-miterlimit:1.5;">
    <g transform="matrix(1,0,0,1,0.918515,1.03904)">
        <path d="M3,12L29,12" style="fill:none;stroke:rgb(224,224,224);stroke-width:1px;" />
        <g transform="matrix(1,0,0,1,0,9)">
            <path d="M3,12L29,12" style="fill:none;stroke:rgb(224,224,224);stroke-width:1px;" />
        </g>
        <g transform="matrix(0.16541,-0.986225,0.986225,0.16541,-2.91927,29.5503)">
            <path d="M3,12L29,12" style="fill:none;stroke:rgb(224,224,224);stroke-width:1px;" />
        </g>
        <g transform="matrix(0.16541,-0.986225,0.986225,0.16541,5.95675,29.7947)">
            <path d="M3,12L29,12" style="fill:none;stroke:rgb(224,224,224);stroke-width:1px;" />
        </g>
    </g>
    <g>
        <path d="M3,12L29,12" style="fill:none;stroke:black;stroke-width:1px;" />
        <g transform="matrix(1,0,0,1,0,9)">
            <path d="M3,12L29,12" style="fill:none;stroke:black;stroke-width:1px;" />
        </g>
        <g transform="matrix(0.16541,-0.986225,0.986225,0.16541,-2.91927,29.5503)">
            <path d="M3,12L29,12" style="fill:none;stroke:black;stroke-width:1px;" />
        </g>
        <g transform="matrix(0.16541,-0.986225,0.986225,0.16541,5.95675,29.7947)">
            <path d="M3,12L29,12" style="fill:none;stroke:black;stroke-width:1px;" />
        </g>
    </g>
    <g transform="matrix(0.15625,0,0,0.15625,3.91852,14.4169)">
        <path d="M0,0L32,32" style="fill:none;stroke:rgb(0,5,255);stroke-width:6.4px;" />
        <path d="M32,0L0,32" style="fill:none;stroke:rgb(0,5,255);stroke-width:6.4px;" />
    </g>
    <g transform="matrix(0.15625,0,0,0.15625,13.5,14.4169)">
        <path d="M0,0L32,32" style="fill:none;stroke:rgb(0,5,255);stroke-width:6.4px;" />
        <path d="M32,0L0,32" style="fill:none;stroke:rgb(0,5,255);stroke-width:6.4px;" />
    </g>
    <g transform="matrix(0.15625,0,0,0.15625,5.5,4.41686)">
        <circle cx="16" cy="16" r="16" style="fill:none;stroke:rgb(255,0,7);stroke-width:6.4px;" />
    </g>
    <g transform="matrix(0.15625,0,0,0.15625,21.5,23.5766)">
        <circle cx="16" cy="16" r="16" style="fill:none;stroke:rgb(255,0,7);stroke-width:6.4px;" />
    </g>
</svg>